# xmcd
#
# Track frame offsets: 
#        150
#        15071
#        28165
#        40358
#        50512
#        62018
#        73427
#        89367
#        115569
#        127223
#        141624
#        155270
#        174946
#        184446
#        196157
#        207207
#        219713
#        234423
#        254384
#
# Disc length: 3686 seconds
#
# Revision: 2
# Processed by: cddbd v1.5.2PL0 Copyright (c) Steve Scherf et al.
# Submitted via: ExactAudioCopyFreeDBPlugin 1.0
#
DISCID=190e6413
DTITLE=Various Artist - Boddie Recording Company, Cleveland, Ohio [Nu
DTITLE=mero Group 035]
DYEAR=2011
DGENRE=Rhythm and Blues
TTITLE0=Creations Unlimited - Chrystal Illusion
TTITLE1=Ricky Hedges and The Funky People - Don't Destroy Our Love
TTITLE2=Frankie Pighee and The Soulettes - Soul Feeling
TTITLE3=The Chantells - World of Soul
TTITLE4=Jackie Russell - If You Don't Want Me Let Me Be
TTITLE5=Angela Alexander and J.D. Saddler - Spoilin' for a Fight
TTITLE6=Inter-Circle - The Pusher
TTITLE7=Eddie and The Ant Hill Mob - I'm a Number Runner
TTITLE8=Bo and The Metros - Moving On
TTITLE9=Inter-Circle - The Players
TTITLE10=Creations Unlimited - Corruption is the Thing
TTITLE11=King James Version - He's Coming
TTITLE12=Angela Alexander and J.D. Saddler - Don't Make Me Kill You
TTITLE13=The Chantells - Why Won't You Say (What You Want)
TTITLE14=Frankie Pighee and The Soulettes - If You Don't Think That I Lo
TTITLE14=ve You
TTITLE15=Jackie Russell - Don't Trade Love for Money
TTITLE16=Bo and The Metros - Buttered Out
TTITLE17=Ricky Hodges - I Feel It (The Love You Have for Me)
TTITLE18=King James Version - He's Forever (Amen)
EXTD=
EXTT0=
EXTT1=
EXTT2=
EXTT3=
EXTT4=
EXTT5=
EXTT6=
EXTT7=
EXTT8=
EXTT9=
EXTT10=
EXTT11=
EXTT12=
EXTT13=
EXTT14=
EXTT15=
EXTT16=
EXTT17=
EXTT18=
PLAYORDER=
